M48
;DRILL file {KiCad 0.201601280801+6517~42~ubuntu14.04.1-product} date Tue 09 Feb 2016 11:10:02 AM EST
;FORMAT={-:-/ absolute / inch / decimal}
FMAT,2
INCH,TZ
T1C0.025
T2C0.035
T3C0.038
T4C0.039
T5C0.040
T6C0.043
T7C0.047
T8C0.054
T9C0.056
T10C0.063
T11C0.090
T12C0.106
T13C0.124
T14C0.130
%
G90
G05
M72
T1
X4.8215Y-4.1337
X4.8349Y-4.488
X5.1729Y-3.854
X5.4076Y-3.9565
X6.1638Y-4.5392
X6.5481Y-3.9558
X6.8649Y-4.05
X6.975Y-4.1818
X6.9838Y-4.5392
X7.1445Y-3.465
X7.1701Y-4.5029
X7.2665Y-3.407
X7.275Y-4.724
X7.2825Y-4.5781
X7.4173Y-3.3107
X8.0607Y-3.355
T2
X4.15Y-4.05
X4.25Y-3.95
X4.25Y-4.05
X4.25Y-4.15
T3
X7.075Y-4.375
X7.275Y-4.375
T4
X7.925Y-4.4
X8.025Y-4.4
X8.125Y-4.4
T5
X4.59Y-3.1
X4.69Y-3.1
X4.79Y-3.1
X4.89Y-3.1
X4.95Y-5.
X4.99Y-3.1
X5.05Y-5.
X5.09Y-3.1
X5.15Y-5.
X5.19Y-3.1
X5.25Y-5.
X5.29Y-3.1
X5.35Y-5.
X5.39Y-3.1
X5.45Y-5.
X5.49Y-3.1
X5.55Y-5.
X5.65Y-3.1
X5.65Y-5.
X5.75Y-3.1
X5.85Y-3.1
X5.85Y-5.
X5.95Y-3.1
X5.95Y-5.
X6.05Y-3.1
X6.05Y-5.
X6.15Y-3.1
X6.15Y-5.
X6.25Y-3.1
X6.25Y-5.
X6.35Y-3.1
X6.35Y-5.
X6.45Y-5.
X6.55Y-3.1
X6.55Y-5.
X6.65Y-3.1
X6.75Y-3.1
X6.75Y-5.
X6.85Y-3.1
X6.85Y-5.
X6.95Y-3.1
X6.95Y-5.
X7.05Y-3.1
X7.05Y-5.
X7.15Y-3.1
X7.15Y-5.
X7.25Y-3.1
X7.25Y-5.
X7.35Y-5.
X7.45Y-5.
X7.55Y-3.1
X7.55Y-3.2
X7.55Y-3.3
X7.55Y-3.4
X7.55Y-3.5
X7.55Y-3.6
X7.55Y-3.7
X7.55Y-3.8
X7.55Y-3.9
X7.55Y-4.
X7.55Y-4.1
X7.55Y-4.2
X7.55Y-4.3
X7.55Y-4.4
X7.55Y-4.5
X7.55Y-4.6
X7.55Y-4.7
X7.55Y-4.8
X7.65Y-3.1
X7.65Y-3.2
X7.65Y-3.3
X7.65Y-3.4
X7.65Y-3.5
X7.65Y-3.6
X7.65Y-3.7
X7.65Y-3.8
X7.65Y-3.9
X7.65Y-4.
X7.65Y-4.1
X7.65Y-4.2
X7.65Y-4.3
X7.65Y-4.4
X7.65Y-4.5
X7.65Y-4.6
X7.65Y-4.7
X7.65Y-4.8
T6
X4.Y-4.85
X4.1Y-4.85
X4.2Y-4.85
X6.95Y-3.465
X7.05Y-3.465
T7
X3.925Y-3.16
X3.925Y-3.55
X8.075Y-3.16
X8.075Y-3.55
T8
X4.65Y-4.05
X4.65Y-4.75
X4.75Y-4.75
X4.85Y-4.75
X4.95Y-4.05
X4.95Y-4.75
X5.25Y-4.05
X5.25Y-4.75
X5.35Y-4.75
X5.45Y-4.75
X5.55Y-4.05
X5.55Y-4.75
X5.85Y-4.05
X5.85Y-4.75
X5.95Y-4.75
X6.05Y-4.75
X6.15Y-4.05
X6.15Y-4.75
X6.45Y-4.05
X6.45Y-4.75
X6.55Y-4.75
X6.65Y-4.75
X6.75Y-4.05
X6.75Y-4.75
T9
X4.7Y-3.65
X4.9Y-3.65
X5.3Y-3.65
X5.5Y-3.65
X5.9Y-3.65
X6.1Y-3.65
X6.5Y-3.65
X6.7Y-3.65
T10
X8.207Y-4.05
T11
X3.9Y-3.85
X3.9Y-4.25
X7.0805Y-4.05
X7.0805Y-4.235
X7.2695Y-4.05
X7.2695Y-4.235
T12
X8.089Y-4.05
X8.128Y-3.873
X8.128Y-4.227
T13
X7.853Y-4.05
T14
X4.4Y-5.
X4.45Y-3.1
X7.4Y-3.1
X7.65Y-5.
T0
M30
