G04 #@! TF.FileFunction,Soldermask,Bot*
%FSLAX46Y46*%
G04 Gerber Fmt 4.6, Leading zero omitted, Abs format (unit mm)*
G04 Created by KiCad (PCBNEW 0.201601280801+6517~42~ubuntu14.04.1-product) date Tue 09 Feb 2016 11:09:55 AM EST*
%MOMM*%
G01*
G04 APERTURE LIST*
%ADD10C,0.100000*%
%ADD11C,0.228600*%
%ADD12O,1.854200X2.540000*%
%ADD13R,1.854200X2.540000*%
%ADD14R,0.762000X1.534160*%
%ADD15R,1.270000X2.540000*%
%ADD16R,2.540000X1.270000*%
%ADD17C,1.930400*%
%ADD18O,4.572000X3.556000*%
%ADD19O,4.064000X5.080000*%
%ADD20O,5.080000X3.556000*%
%ADD21O,1.524000X2.540000*%
%ADD22C,3.937000*%
%ADD23O,2.540000X1.524000*%
%ADD24O,5.080000X3.048000*%
%ADD25O,2.032000X1.524000*%
%ADD26O,1.524000X2.032000*%
%ADD27O,4.648200X3.378200*%
%ADD28R,2.540000X2.540000*%
%ADD29O,2.540000X2.540000*%
%ADD30R,2.032000X2.032000*%
%ADD31C,2.032000*%
%ADD32R,2.032000X1.270000*%
%ADD33C,2.159000*%
G04 APERTURE END LIST*
D10*
D11*
X211455000Y-75311000D02*
X93345000Y-75311000D01*
X211455000Y-130429000D02*
X211455000Y-75311000D01*
X93345000Y-130429000D02*
X211455000Y-130429000D01*
X93345000Y-75311000D02*
X93345000Y-130429000D01*
D12*
X104140000Y-123190000D03*
X106680000Y-123190000D03*
D13*
X101600000Y-123190000D03*
D14*
X178749960Y-83748880D03*
X177800000Y-83748880D03*
X176850040Y-83748880D03*
X176850040Y-81351120D03*
X177800000Y-81351120D03*
X178749960Y-81351120D03*
X183829960Y-83748880D03*
X182880000Y-83748880D03*
X181930040Y-83748880D03*
X181930040Y-81351120D03*
X182880000Y-81351120D03*
X183829960Y-81351120D03*
D15*
X135636000Y-116840000D03*
X138684000Y-116840000D03*
D16*
X178435000Y-118491000D03*
X178435000Y-121539000D03*
X184785000Y-121539000D03*
X184785000Y-118491000D03*
D15*
X120396000Y-102870000D03*
X123444000Y-102870000D03*
D16*
X186690000Y-82296000D03*
X186690000Y-85344000D03*
X173990000Y-82296000D03*
X173990000Y-85344000D03*
D15*
X106934000Y-127000000D03*
X103886000Y-127000000D03*
X206629000Y-123825000D03*
X203581000Y-123825000D03*
X199136000Y-97155000D03*
X202184000Y-97155000D03*
D17*
X208457800Y-102870000D03*
D18*
X204952600Y-102870000D03*
D19*
X199466200Y-102870000D03*
D20*
X206451200Y-98374200D03*
X206451200Y-107365800D03*
D21*
X203835000Y-111760000D03*
X206375000Y-111760000D03*
X201295000Y-111760000D03*
D15*
X150876000Y-116840000D03*
X153924000Y-116840000D03*
D22*
X111760000Y-127000000D03*
X113030000Y-78740000D03*
X194310000Y-127000000D03*
X187960000Y-78740000D03*
D21*
X125730000Y-127000000D03*
X128270000Y-127000000D03*
X130810000Y-127000000D03*
X133350000Y-127000000D03*
X135890000Y-127000000D03*
X138430000Y-127000000D03*
X140970000Y-127000000D03*
X143510000Y-127000000D03*
X148590000Y-127000000D03*
X151130000Y-127000000D03*
X153670000Y-127000000D03*
X156210000Y-127000000D03*
X158750000Y-127000000D03*
X161290000Y-127000000D03*
X163830000Y-127000000D03*
X166370000Y-127000000D03*
X171450000Y-127000000D03*
X173990000Y-127000000D03*
X176530000Y-127000000D03*
X179070000Y-127000000D03*
X181610000Y-127000000D03*
X184150000Y-127000000D03*
X186690000Y-127000000D03*
X189230000Y-127000000D03*
X116586000Y-78740000D03*
X119126000Y-78740000D03*
X121666000Y-78740000D03*
X124206000Y-78740000D03*
X126746000Y-78740000D03*
X129286000Y-78740000D03*
X131826000Y-78740000D03*
X134366000Y-78740000D03*
X136906000Y-78740000D03*
X139446000Y-78740000D03*
X143510000Y-78740000D03*
X161290000Y-78740000D03*
X158750000Y-78740000D03*
X156210000Y-78740000D03*
X153670000Y-78740000D03*
X151130000Y-78740000D03*
X148590000Y-78740000D03*
X146050000Y-78740000D03*
X166370000Y-78740000D03*
X168910000Y-78740000D03*
X171450000Y-78740000D03*
X173990000Y-78740000D03*
X176530000Y-78740000D03*
X179070000Y-78740000D03*
X181610000Y-78740000D03*
X184150000Y-78740000D03*
X191770000Y-78232000D03*
X194310000Y-78232000D03*
D23*
X191262000Y-81280000D03*
X194818000Y-81280000D03*
X191262000Y-83820000D03*
X194818000Y-83820000D03*
X191262000Y-86360000D03*
X194818000Y-86360000D03*
X191262000Y-88900000D03*
X194818000Y-88900000D03*
X191262000Y-91440000D03*
X194818000Y-91440000D03*
X191262000Y-93980000D03*
X194818000Y-93980000D03*
X191262000Y-96520000D03*
X194818000Y-96520000D03*
X191262000Y-99060000D03*
X194818000Y-99060000D03*
X191262000Y-101600000D03*
X194818000Y-101600000D03*
X191262000Y-104140000D03*
X194818000Y-104140000D03*
X191262000Y-106680000D03*
X194818000Y-106680000D03*
X191262000Y-109220000D03*
X194818000Y-109220000D03*
X191262000Y-111760000D03*
X194818000Y-111760000D03*
X191262000Y-114300000D03*
X194818000Y-114300000D03*
X191262000Y-116840000D03*
X194818000Y-116840000D03*
X191262000Y-119380000D03*
X194818000Y-119380000D03*
X191262000Y-121920000D03*
X194818000Y-121920000D03*
D15*
X135636000Y-102870000D03*
X138684000Y-102870000D03*
X150876000Y-102870000D03*
X153924000Y-102870000D03*
D12*
X176530000Y-88011000D03*
D13*
X179070000Y-88011000D03*
D24*
X99060000Y-107950000D03*
X99060000Y-97790000D03*
D25*
X105156000Y-102870000D03*
D26*
X107950000Y-102870000D03*
X107950000Y-100076000D03*
X107950000Y-105664000D03*
D27*
X179844700Y-107569000D03*
X179844700Y-102870000D03*
X184645300Y-102870000D03*
X184645300Y-107569000D03*
D25*
X184785000Y-111125000D03*
X179705000Y-111125000D03*
D15*
X120396000Y-116840000D03*
X123444000Y-116840000D03*
X166116000Y-102870000D03*
X169164000Y-102870000D03*
X166116000Y-116840000D03*
X169164000Y-116840000D03*
D28*
X119380000Y-92710000D03*
D29*
X124460000Y-92710000D03*
D28*
X134620000Y-92710000D03*
D29*
X139700000Y-92710000D03*
D28*
X149860000Y-92710000D03*
D29*
X154940000Y-92710000D03*
D28*
X165100000Y-92710000D03*
D29*
X170180000Y-92710000D03*
D30*
X163830000Y-120650000D03*
D31*
X166370000Y-120650000D03*
X168910000Y-120650000D03*
X171450000Y-120650000D03*
X171450000Y-102870000D03*
X163830000Y-102870000D03*
D30*
X148590000Y-120650000D03*
D31*
X151130000Y-120650000D03*
X153670000Y-120650000D03*
X156210000Y-120650000D03*
X156210000Y-102870000D03*
X148590000Y-102870000D03*
D30*
X133350000Y-120650000D03*
D31*
X135890000Y-120650000D03*
X138430000Y-120650000D03*
X140970000Y-120650000D03*
X140970000Y-102870000D03*
X133350000Y-102870000D03*
D30*
X118110000Y-120650000D03*
D31*
X120650000Y-120650000D03*
X123190000Y-120650000D03*
X125730000Y-120650000D03*
X125730000Y-102870000D03*
X118110000Y-102870000D03*
D32*
X126365000Y-107315000D03*
X126365000Y-109855000D03*
X126365000Y-112395000D03*
X117475000Y-112395000D03*
X117475000Y-109855000D03*
X117475000Y-107315000D03*
X141605000Y-107315000D03*
X141605000Y-109855000D03*
X141605000Y-112395000D03*
X132715000Y-112395000D03*
X132715000Y-109855000D03*
X132715000Y-107315000D03*
X156845000Y-107315000D03*
X156845000Y-109855000D03*
X156845000Y-112395000D03*
X147955000Y-112395000D03*
X147955000Y-109855000D03*
X147955000Y-107315000D03*
X172085000Y-107315000D03*
X172085000Y-109855000D03*
X172085000Y-112395000D03*
X163195000Y-112395000D03*
X163195000Y-109855000D03*
X163195000Y-107315000D03*
D33*
X205105000Y-80264000D03*
X205105000Y-90170000D03*
X99695000Y-90170000D03*
X99695000Y-80264000D03*
M02*
